<?xml version="1.0" encoding="UTF-8" standalone="no"?>
<!-- Created with Inkscape (http://www.inkscape.org/) -->

<svg
   width="107mm"
   height="150.96973mm"
   viewBox="0 0 107 150.96973"
   version="1.1"
   id="svg1"
   sodipodi:docname="New document 1.2026_04_10_21_46_44.0.svg"
   inkscape:version="1.4.2 (f4327f4, 2025-05-13)"
   xmlns:inkscape="http://www.inkscape.org/namespaces/inkscape"
   xmlns:sodipodi="http://sodipodi.sourceforge.net/DTD/sodipodi-0.dtd"
   xmlns="http://www.w3.org/2000/svg"
   xmlns:svg="http://www.w3.org/2000/svg">
  <sodipodi:namedview
     id="namedview1"
     pagecolor="#ffffff"
     bordercolor="#000000"
     borderopacity="0.25"
     inkscape:showpageshadow="2"
     inkscape:pageopacity="0.0"
     inkscape:pagecheckerboard="0"
     inkscape:deskcolor="#d1d1d1"
     inkscape:document-units="mm"
     inkscape:zoom="1.1775"
     inkscape:cx="217.83439"
     inkscape:cy="462.42038"
     inkscape:window-width="1920"
     inkscape:window-height="991"
     inkscape:window-x="-9"
     inkscape:window-y="-9"
     inkscape:window-maximized="1"
     inkscape:current-layer="layer1" />
  <defs
     id="defs1" />
  <g
     inkscape:label="Layer 1"
     inkscape:groupmode="layer"
     id="layer1"
     transform="translate(-54.879997,-98.664033)">
    <circle
       style="font-variation-settings:normal;opacity:1;vector-effect:none;fill:#0d68ae;fill-opacity:1;fill-rule:evenodd;stroke:none;stroke-width:6.62017;stroke-linecap:butt;stroke-linejoin:miter;stroke-miterlimit:4;stroke-dasharray:none;stroke-dashoffset:0;stroke-opacity:1;-inkscape-stroke:none;stop-color:#000000;stop-opacity:1"
       id="path1"
       cx="108.38"
       cy="180.34589"
       r="53.5" />
    <circle
       style="font-variation-settings:normal;vector-effect:none;fill:#f9f9f9;fill-opacity:1;fill-rule:evenodd;stroke:none;stroke-width:6.1252;stroke-linecap:butt;stroke-linejoin:miter;stroke-miterlimit:4;stroke-dasharray:none;stroke-dashoffset:0;stroke-opacity:1;-inkscape-stroke:none;stop-color:#000000"
       id="path1-5"
       cx="108.38"
       cy="180.34593"
       r="49.5" />
    <path
       style="fill:#0d68ae;fill-opacity:1;stroke-width:0.999995"
       d="m 112.99994,225.32383 c 5.75013,-0.65835 10.00201,-1.88048 15.1014,-4.34063 11.03552,-5.32397 19.57872,-15.25773 23.2945,-27.08608 2.01828,-6.42476 2.52144,-14.07602 1.37803,-20.95508 -1.13848,-6.84944 -4.03186,-13.61422 -8.32899,-19.47341 -2.7296,-3.72186 -7.80956,-8.42518 -12.00437,-11.11434 -1.53794,-0.98594 -6.34251,-3.48938 -6.70183,-3.49202 -0.0975,-7.2e-4 -0.42606,-0.13108 -0.73004,-0.2897 -0.72988,-0.38086 -4.98539,-1.69832 -6.85564,-2.12244 -9.04051,-2.05011 -18.999777,-1.13346 -27.600226,2.54034 -15.115004,6.45658 -25.676049,20.9205 -27.108549,37.12658 -1.2231,13.83707 3.356229,26.6177 13.009904,36.30992 5.903598,5.92717 14.220384,10.49274 22.007011,12.08095 5.50993,1.12384 9.76413,1.36258 14.5388,0.81591 z m -17.217418,-5.46387 c -0.7785,-0.2819 -2.096909,-0.96558 -2.929799,-1.51929 l -1.51434,-1.00673 -1.162229,-1.39962 c -1.257259,-1.51405 -2.009339,-2.84124 -2.649599,-4.67571 l -0.40798,-1.16892 -0.20823,-2.64585 -0.20823,-2.64584 0.22297,-4.23335 c 0.12263,-2.32834 0.32085,-4.80485 0.44049,-5.50336 0.11964,-0.6985 0.36727,-2.17488 0.55029,-3.28084 0.49086,-2.96621 1.421439,-8.27663 2.095699,-11.95922 0.17052,-0.93133 0.44842,-2.50296 0.61754,-3.49251 0.16913,-0.98955 0.511449,-2.84693 0.760699,-4.12752 0.57387,-2.94831 0.91207,-4.7762 1.34678,-7.27894 0.189839,-1.093 0.39588,-2.06931 0.45786,-2.1696 0.26496,-0.42872 0.46337,-0.10034 0.689119,1.14059 0.46602,2.56167 0.681281,3.66469 0.98108,5.02711 0.166509,0.75671 0.50781,2.47122 0.75845,3.81001 0.429809,2.29589 1.2325,6.46656 1.975779,10.26588 0.3257,1.66485 0.719279,3.85075 1.295809,7.19669 0.160479,0.93134 0.491611,2.83635 0.735861,4.23335 0.244249,1.39701 0.587139,3.54014 0.761989,4.76252 0.17485,1.22238 0.46044,3.17501 0.63465,4.33918 1.14538,7.65391 1.63112,11.88946 1.48647,12.96182 -0.1618,1.19954 -0.99695,2.46972 -2.06869,3.14628 l -0.877235,0.55379 -1.184874,0.0913 -1.18487,0.0913 z m 21.535298,0.34171 c -0.70553,-0.17949 -1.95694,-1.06478 -2.41555,-1.70882 -0.24128,-0.33887 -0.55234,-1.04101 -0.69125,-1.56031 l -0.25252,-0.9442 0.46042,-3.796 c 0.92951,-7.66344 2.36706,-17.12527 3.63182,-23.90441 0.23891,-1.28058 0.52874,-2.89984 0.64406,-3.59834 0.11533,-0.69851 0.34356,-1.93676 0.50717,-2.75168 0.16362,-0.81492 0.49849,-2.57705 0.74415,-3.91585 0.24566,-1.3388 0.53527,-2.81518 0.64356,-3.28085 0.10831,-0.46566 0.49558,-2.37067 0.86062,-4.23335 0.36502,-1.86267 0.79752,-4.05343 0.96108,-4.86835 0.16356,-0.81492 0.35692,-1.84246 0.42969,-2.28342 l 0.13232,-0.80174 0.23487,0.0783 c 0.23494,0.0783 0.28154,0.26536 0.85456,3.4302 0.16863,0.93134 0.50611,2.7411 0.74996,4.02169 0.24386,1.28058 0.58348,3.11416 0.75472,4.0746 0.17124,0.96044 0.45126,2.53207 0.62228,3.49251 0.17102,0.96044 0.50846,2.79401 0.74983,4.0746 0.24138,1.28059 0.57295,3.13797 0.7368,4.12752 0.16385,0.98954 0.49442,2.89454 0.73459,4.23334 0.62114,3.46256 1.0386,6.6528 1.30179,9.94837 l 0.22821,2.85751 -0.12875,3.22567 -0.12874,3.22567 -0.60391,1.79717 c -0.7539,2.24348 -1.70261,3.83906 -3.20076,5.38315 -1.44857,1.493 -3.10441,2.59029 -4.96633,3.29112 l -1.43409,0.53979 -0.87437,-0.0246 c -0.48091,-0.0135 -1.05973,-0.0717 -1.28623,-0.12934 z m -44.925929,-20.1436 -0.845409,-0.61242 -0.64439,-1.34551 c -1.70578,-3.56173 -2.876349,-7.45599 -3.557688,-11.83569 l -0.34772,-2.23516 0.103089,-4.32654 0.103091,-4.32653 0.31435,-1.79918 c 1.121659,-6.41998 3.870297,-12.77816 7.749526,-17.92629 1.838959,-2.44049 2.565889,-3.16229 3.600469,-3.57508 l 0.930919,-0.37142 0.97408,0.25972 c 1.019759,0.2719 1.985589,1.03176 2.450629,1.92799 0.49648,0.95684 0.953929,3.16819 1.1968,5.78537 l 0.238999,2.5755 -0.134459,3.83151 c -0.074,2.10733 -0.23234,4.58384 -0.351971,5.50335 -0.11962,0.91952 -0.31187,2.43385 -0.427209,3.36519 -0.115341,0.93134 -0.302041,2.16959 -0.41489,2.75168 -0.11285,0.58208 -0.44893,2.39184 -0.74685,4.02168 -0.83915,4.59082 -2.047989,9.3879 -3.188519,12.6531 -1.750629,5.01183 -2.791859,6.29114 -5.120347,6.29114 h -1.03709 z m 68.409469,0.36598 c -0.77301,-0.42649 -1.61849,-1.33049 -2.0461,-2.18774 -1.77579,-3.56007 -3.84131,-11.04867 -5.13763,-18.62674 -0.81186,-4.74587 -0.99968,-6.13372 -1.28776,-9.51567 -0.5412,-6.35339 -0.28202,-12.23674 0.67246,-15.2647 l 0.369,-1.17061 0.67606,-0.69612 0.67607,-0.69612 0.95701,-0.26795 0.95701,-0.26794 0.81194,0.26486 c 1.09418,0.35694 1.62631,0.80181 2.96889,2.482 3.08858,3.86526 5.59543,8.42556 7.12501,12.96136 1.78722,5.29983 2.45079,11.76004 1.82628,17.78007 -0.41139,3.9657 -1.69438,8.58852 -3.38779,12.20678 l -1.00745,2.15258 -0.86521,0.54618 -0.86522,0.54619 -1.00961,-0.006 c -0.5553,-0.004 -1.20013,-0.11154 -1.43296,-0.24 z m -32.81279,-7.30564 c -0.0692,-0.32842 -0.21793,-1.00577 -0.3305,-1.50523 -0.11255,-0.49946 -0.35436,-1.64246 -0.53736,-2.54001 -0.47512,-2.33037 -0.90051,-4.38487 -1.23633,-5.97109 -0.1602,-0.75671 -0.48723,-2.37597 -0.72675,-3.59835 -0.23949,-1.22238 -0.63595,-3.17501 -0.88099,-4.33918 -0.24505,-1.16417 -0.58942,-2.87868 -0.76527,-3.81002 -1.08542,-5.74842 -1.43406,-7.65468 -1.99372,-10.90087 -0.55218,-3.20276 -0.91573,-5.4181 -1.45896,-8.89004 -0.2459,-1.57163 -0.494096,-3.04801 -0.55158,-3.28084 -0.170692,-0.69147 0.51167,-3.47366 1.13108,-4.61171 1.19765,-2.20047 3.54875,-3.91607 6.02934,-4.39959 l 1.11379,-0.21711 1.41825,0.13669 1.41823,0.1367 1.28685,0.60858 1.28684,0.60859 1.15637,1.09365 1.15637,1.09364 0.6623,1.39944 0.66229,1.39944 0.0999,1.69334 0.0999,1.69334 -0.68324,4.02168 c -0.37579,2.21193 -0.80524,4.73606 -0.95433,5.60919 -0.1491,0.87313 -0.41739,2.44476 -0.5962,3.49251 -0.17881,1.04776 -0.52818,3.00039 -0.77637,4.33919 -0.24819,1.33879 -0.58175,3.14855 -0.74124,4.02168 -0.1595,0.87313 -0.63851,3.25439 -1.06447,5.29169 -0.42596,2.0373 -0.89368,4.32331 -1.03938,5.08002 -0.14569,0.75671 -0.6257,3.09034 -1.06668,5.18585 -0.44099,2.09551 -0.95777,4.66056 -1.14842,5.70012 l -0.34662,1.8901 -0.24858,0.0829 -0.24857,0.0829 z"
       id="path7"
       sodipodi:nodetypes="sssssssssssssssscsscccsssssssssssssssssscccscsscssssssssscssssssssscccsssccccccsscccssscsssccsssssscccsssscccccssssscccccccssssssssssscccccccccccssssssssscccc" />
    <path
       sodipodi:type="star"
       style="opacity:1;fill:#d3be6f;fill-opacity:1;stroke:none;stroke-width:0.264583"
       id="path8"
       inkscape:flatsided="false"
       sodipodi:sides="5"
       sodipodi:cx="108.09568"
       sodipodi:cy="37.566216"
       sodipodi:r1="9.8905773"
       sodipodi:r2="3.8078723"
       sodipodi:arg1="0.94531129"
       sodipodi:arg2="1.5736298"
       inkscape:rounded="0"
       inkscape:randomized="0"
       d="m 113.88652,45.584301 -5.80163,-4.210228 -5.82539,4.177283 2.21136,-6.818709 -5.77298,-4.249429 7.16833,-0.004 2.2575,-6.803575 2.2189,6.816258 7.16819,0.04459 -5.79697,4.216644 z"
       inkscape:transform-center-x="-0.0086601456"
       inkscape:transform-center-y="-0.93622604"
       transform="translate(0.3268289,70.988355)" />
    <path
       id="path9"
       style="opacity:1;fill:#d3be6f;fill-opacity:1;stroke:none;stroke-width:0.264583"
       d="m 70.560549,231.07511 -3.74034,5.72217 3.425631,2.55903 1.863452,0.21032 c 2.699096,-0.85072 3.657095,-3.65303 2.428277,-5.95884 z m 1.351856,2.0464 1.456758,1.25988 c 0.271542,3.21596 -2.505728,3.50533 -3.096972,3.53056 l -1.142049,-0.68264 z"
       sodipodi:nodetypes="ccccccccccc" />
    <path
       id="path11"
       style="opacity:1;fill:#d3be6f;fill-opacity:1;stroke:none;stroke-width:0.264583"
       d="m 77.674327,234.99376 -2.690792,5.60434 -0.66921,0.59067 2.125969,1.12861 0.05271,-0.68264 0.65629,-0.95809 0.498678,0.18397 0.393774,2.45413 2.033985,0.83974 -0.236162,-2.44069 c 4.413268,-1.31097 1.863782,-4.83448 1.863454,-4.8695 z m 1.447457,1.93323 1.604036,1.09761 c 0.36712,1.3284 -0.541955,2.02068 -1.604036,2.05467 l -1.26659,-0.73174 z"
       sodipodi:nodetypes="ccccccccccccccccc" />
    <path
       id="path13"
       style="font-variation-settings:normal;opacity:1;vector-effect:none;fill:#d3be6f;fill-opacity:1;fill-rule:evenodd;stroke:none;stroke-width:1.85424;stroke-linecap:butt;stroke-linejoin:miter;stroke-miterlimit:4;stroke-dasharray:none;stroke-dashoffset:0;stroke-opacity:1;-inkscape-stroke:none;stop-color:#000000;stop-opacity:1"
       d="m 87.286143,238.75841 a 4.0104642,3.8611917 0 0 0 -4.010608,3.86129 4.0104642,3.8611917 0 0 0 4.010608,3.86128 4.0104642,3.8611917 0 0 0 4.010608,-3.86128 4.0104642,3.8611917 0 0 0 -4.010608,-3.86129 z m 0.09405,0.72192 a 2.0882399,3.1446819 0 0 1 2.088245,3.14453 2.0882399,3.1446819 0 0 1 -2.088245,3.14505 2.0882399,3.1446819 0 0 1 -2.088244,-3.14505 2.0882399,3.1446819 0 0 1 2.088244,-3.14453 z" />
    <path
       style="opacity:1;fill:#d3be6f;fill-opacity:1;stroke:none;stroke-width:0.264583"
       d="m 93.505798,240.41869 2.34856,0.51749 -0.537382,0.93545 -1.194183,5.13501 0.09951,1.01506 -2.308754,-0.53738 0.51748,-0.85584 1.134472,-5.35395 z"
       id="path14" />
    <path
       style="opacity:1;fill:#d3be6f;fill-opacity:1;stroke:none;stroke-width:0.264583"
       d="m 97.128152,241.35414 -0.298545,1.75148 2.030102,-0.43787 -0.39806,5.23453 -0.477667,0.65681 2.341578,0.3829 -0.0527,-0.78097 0.83593,-5.37385 1.94353,1.1462 0.25167,-1.90373 z"
       id="path15"
       sodipodi:nodetypes="ccccccccccc" />
    <path
       style="fill:#d3be6f;fill-opacity:1;stroke:none;stroke-width:0.264583"
       d="m 141.54673,231.96966 0.89713,1.5336 1.27369,-1.64035 3.05976,4.26573 0.0562,0.81018 2.23601,-1.17473 -0.73851,-0.60146 -2.81386,-4.65394 2.34047,-0.43098 -1.19825,-1.64468 z"
       id="path15-7" />
    <path
       id="path16"
       style="opacity:1;fill:#d3be6f;fill-opacity:1;stroke:none;stroke-width:0.264583"
       d="m 112.65254,242.0311 -2.62723,0.0992 0.19895,1.05472 -2.20916,6.28957 2.92592,0.15917 -0.77618,-1.05472 -0.0796,-1.07488 2.64687,-0.0796 0.73639,1.11467 0.0599,0.6966 2.22881,-0.13953 z m -1.65675,1.83814 1.23559,2.33114 -1.90945,0.0842 z" />
    <path
       style="opacity:1;fill:#d3be6f;fill-opacity:1;stroke:none;stroke-width:0.264583"
       d="m 115.79872,241.79077 0.58984,0.95498 0.75836,4.71871 c 2.38707,2.10843 4.63365,1.54573 6.31967,-0.81454 l -0.75836,-5.28046 0.0281,-1.03924 -2.49977,0.56175 0.47748,0.73027 0.84262,4.66254 c -0.12602,0.44671 -0.91497,2.07325 -2.64021,0.50558 l -0.84262,-4.35358 0.28087,-1.06732 z"
       id="path18"
       sodipodi:nodetypes="ccccccccccccc" />
    <path
       style="fill:#d3be6f;fill-opacity:1;stroke:none;stroke-width:0.264583"
       d="m 133.93798,236.07805 0.84329,0.74081 2.10484,4.2908 c 2.89921,1.31838 4.88311,0.12345 5.80538,-2.62664 l -2.26908,-4.82801 -0.27698,-1.00205 -2.22632,1.26808 0.67013,0.55876 2.169,4.21245 c 0.0102,0.46403 -0.26883,2.25015 -2.37703,1.2554 l -2.07866,-3.91697 -0.0435,-1.10282 z"
       id="path18-8"
       sodipodi:nodetypes="ccccccccccccc" />
    <path
       id="path19"
       style="opacity:1;fill:#d3be6f;fill-opacity:1;stroke:none;stroke-width:0.264583"
       d="m 131.30308,237.43704 -4.63434,1.79783 0.50539,0.53382 2.16266,5.53303 -0.0279,0.87075 5.0555,-1.85364 c 1.19426,-1.46614 1.1097,-2.88991 -0.75806,-3.70781 0.48435,-1.52872 0.20193,-2.46486 -1.32033,-3.11766 z m 0.11214,1.68517 c 0.79525,0.49886 0.57663,1.05109 0.39326,1.60146 l -1.76941,0.61754 -0.53381,-1.79731 z m 0.90795,2.71407 c 0.73815,0.42868 0.56718,1.01779 0.42995,1.60094 l -1.93425,0.61806 -0.58343,-1.79784 z"
       sodipodi:nodetypes="ccccccccccccccccccc" />
  </g>
</svg>
